<svg width="250" height="399" xmlns="http://www.w3.org/2000/svg">

 <g id="imagebot_10">
  <path transform="translate(2.50022 -2.5) matrix(1 0 0 1 -204.054 -229.57)" fill-rule="evenodd" stroke="#000000" stroke-width="4" fill="#ffffff" d="M305.95,383.81C296.5,320.23 360.35,315.95 353.16,290.64C345.69,264.32 316.65,271.76 301.54,267.98S288.66,250.24 297.76,242.8C304.69,237.13 361.31,234.07 374.57,275.53C393,333.21 329.24,328.41 329.24,382.55C329.24,428.58 307.21,383.81 305.95,383.81z" id="imagebot_64"/>
  <path stroke-linejoin="round" stroke="#000000" stroke-linecap="round" stroke-width="2.2041" fill="#ffffff" transform="translate(2.50022 -2.5) matrix(1.8148 0 0 1.8148 -486.274 -691.65)" d="M403.52,522.31A67.988,67.988 0 1 1 267.55,522.31A67.988,67.988 0 1 1 403.52,522.31z" id="imagebot_63"/>
  <path stroke-linejoin="round" stroke="#000000" stroke-linecap="round" stroke-width="4" fill="#ffffff" d="M 32.41621648406982 177.66998999999998 C 29.846216484069828 177.71999 27.956216484069827 178.24999 27.006216484069824 179.31999000000002 C 23.526216484069828 183.25999000000002 26.41621648406982 219.25999 48.07621648406982 234.75999 C 35.77621648406983 250.85999000000004 28.476216484069823 270.94999 28.476216484069823 292.75999 C 28.476216484069823 345.57999 71.34621648406983 388.44999 124.16621648406982 388.44999 S 219.85621648406982 345.57999 219.85621648406982 292.75999 C 219.85621648406982 271.15999 212.65621648406983 251.24999000000003 200.57621648406982 235.22999 C 222.83621648406984 219.99999 225.84621648406983 183.29998999999998 222.31621648406983 179.31999000000002 C 217.27621648406983 173.61999 184.80621648406984 183.08999 171.91621648406982 199.69999 C 169.75621648406982 202.47999 168.36621648406984 205.05999 167.57621648406982 207.47999 C 154.53621648406983 200.81999 139.79621648406982 197.06999000000002 124.16621648406982 197.06999000000002 C 108.87621648406983 197.06999000000002 94.42621648406983 200.65999 81.60621648406982 207.03999 C 80.78621648406983 204.74999 79.43621648406983 202.30999 77.41621648406982 199.69999 C 66.93621648406983 186.19999 43.52621648406982 177.41998999999998 32.41621648406982 177.66998999999998 z" id="imagebot_62"/>
  <path stroke-linejoin="round" stroke="#000000" stroke-linecap="round" stroke-width="9.931" fill="#ffffff" transform="translate(2.50022 -2.5) matrix(0.40278 0 0 0.40278 -42.4038 0.859981)" d="M403.52,522.31A67.988,67.988 0 1 1 267.55,522.31A67.988,67.988 0 1 1 403.52,522.31z" id="imagebot_61"/>
  <path stroke-linejoin="round" stroke="#000000" stroke-linecap="round" stroke-width="9.931" fill="#ffffff" transform="translate(2.50022 -2.5) matrix(0.40278 0 0 0.40278 21.1762 0.859981)" d="M403.52,522.31A67.988,67.988 0 1 1 267.55,522.31A67.988,67.988 0 1 1 403.52,522.31z" id="imagebot_60"/>
  <path fill="#000000" transform="translate(-1 -2) matrix(0.125 0 0 0.125 70.7 157.88)" d="M403.52,522.31A67.988,67.988 0 1 1 267.55,522.31A67.988,67.988 0 1 1 403.52,522.31z" id="imagebot_59"/>
  <path fill="#000000" transform="translate(0 -1) matrix(0.125 0 0 0.125 101.79 158.13)" d="M403.52,522.31A67.988,67.988 0 1 1 267.55,522.31A67.988,67.988 0 1 1 403.52,522.31z" id="imagebot_58"/>
  <path transform="translate(2.50022 -2.5) matrix(1 0 0 1 -200.304 -232.07)" fill="#000000" d="M341.53,498.13C341.53,506.96 331.86,514.12 325.46,514.12C318.57,514.12 309.4,506.96 309.4,498.13S316.59,487.05 325.46,487.05S341.53,489.3 341.53,498.13z" id="imagebot_57"/>
  <g transform="translate(2.50022 -2.5) matrix(1 0 0 1 -202.826 -237.106)" id="imagebot_54">
   <path stroke-linejoin="round" stroke="#000000" stroke-linecap="round" stroke-width="4.2713" fill="none" transform="matrix(.93748 0 0 .93548 13.993 33.332)" d="M392.75,487.02A39.03,39.03 0 0 1 335.54,530.93" id="imagebot_56"/>
   <path stroke-linejoin="round" stroke="#000000" stroke-linecap="round" stroke-width="4.2713" fill="none" transform="matrix(-.93748 0 0 .93548 641.98 33.332)" d="M392.75,487.02A39.03,39.03 0 0 1 335.54,530.93" id="imagebot_55"/>
  </g>
  <g transform="translate(2.50022 -2.5) matrix(1 0 0 1 -200.304 -242.772)" id="imagebot_50">
   <path stroke="#000000" stroke-linecap="round" stroke-width="4" fill="none" d="M365.35,505.67C410.02,489.06 431.85,509.56 431.85,509.56" id="imagebot_53"/>
   <path stroke="#000000" stroke-linecap="round" stroke-width="4" fill="none" d="M358.94,516.8C390.57,507.84 411.29,530.69 411.29,530.69" id="imagebot_52"/>
   <path stroke="#000000" stroke-linecap="round" stroke-width="4" fill="none" d="M356.31,528.71C380.65,526.14 389.97,547.84 389.97,547.84" id="imagebot_51"/>
  </g>
  <g transform="translate(2.50022 -2.5) matrix(-1 0 0 1 451.246 -242.772)" id="imagebot_46">
   <path stroke="#000000" stroke-linecap="round" stroke-width="4" fill="none" d="M365.35,505.67C410.02,489.06 431.85,509.56 431.85,509.56" id="imagebot_49"/>
   <path stroke="#000000" stroke-linecap="round" stroke-width="4" fill="none" d="M358.94,516.8C390.57,507.84 411.29,530.69 411.29,530.69" id="imagebot_48"/>
   <path stroke="#000000" stroke-linecap="round" stroke-width="4" fill="none" d="M356.31,528.71C380.65,526.14 389.97,547.84 389.97,547.84" id="imagebot_47"/>
  </g>
  <path transform="translate(-1 -5) matrix(1 0 0 1 -192.054 -164.32)" stroke-linejoin="round" fill-rule="evenodd" stroke="#000000" stroke-width="4" fill="#000000" d="M381.49,380.03C384.01,360.52 412.97,347.3 416.74,350.45C420.52,353.59 412.07,383.85 395.97,391.36C386.53,395.77 381.49,385.07 381.49,380.03z" id="imagebot_45"/>
  <path transform="translate(-3 -3) matrix(1 0 0 1 -200.304 -165.57)" stroke-linejoin="round" fill-rule="evenodd" stroke="#000000" stroke-width="4" fill="#000000" d="M269.7,380.03C267.18,360.52 238.22,347.3 234.45,350.45C230.67,353.59 239.11,383.85 255.22,391.36C264.66,395.77 269.7,385.07 269.7,380.03z" id="imagebot_44"/>
  <path transform="translate(2.50022 -2.5) matrix(1 0 0 1 -197.804 -232.07)" stroke-linejoin="round" stroke="#000000" stroke-linecap="round" stroke-width="4" fill="#ffffff" d="M409.5,608.24C409.5,629.78 392.02,629.01 370.47,629.01C348.93,629.01 331.44,629.78 331.44,608.24C331.44,586.69 348.93,569.21 370.47,569.21C392.02,569.21 409.5,586.69 409.5,608.24z" id="imagebot_43"/>
  <path transform="translate(2.50022 -2.5) matrix(1 0 0 1 -200.304 -232.07)" stroke-linejoin="round" stroke="#000000" stroke-linecap="round" stroke-width="4" fill="#ffffff" d="M319.48,608.24C319.48,629.78 302,629.01 280.45,629.01C268.47,629.01 257.75,629.25 250.59,625.76C244.87,622.97 241.42,617.8 241.42,608.24C241.42,586.69 258.91,569.21 280.45,569.21C302,569.21 319.48,586.69 319.48,608.24z" id="imagebot_42"/>
  <g transform="translate(2.50022 -2.5) matrix(-1 0 0 1 452.176 -233.898)" id="imagebot_36">
   <path stroke="#000000" stroke-linecap="round" stroke-width="4" fill="none" d="M357.34,628.69C353.84,617.36 357.84,604.14 357.84,604.14" id="imagebot_41"/>
   <path stroke="#000000" stroke-linecap="round" stroke-width="4" fill="none" d="M375.37,631.21C379.66,612.96 374.75,598.48 374.75,598.48" id="imagebot_40"/>
   <path stroke="#000000" stroke-linecap="round" stroke-width="4" fill="none" d="M393.62,629.32C402.43,615.47 394.88,604.14 394.88,604.14" id="imagebot_37"/>
  </g>
  <g transform="translate(2.50022 -2.5) matrix(1 0 0 1 -201.127 -233.898)" id="imagebot_11">
   <path stroke="#000000" stroke-linecap="round" stroke-width="4" fill="none" d="M357.34,628.69C353.84,617.36 357.84,604.14 357.84,604.14" id="imagebot_34"/>
   <path stroke="#000000" stroke-linecap="round" stroke-width="4" fill="none" d="M375.37,631.21C379.66,612.96 374.75,598.48 374.75,598.48" id="imagebot_25"/>
   <path stroke="#000000" stroke-linecap="round" stroke-width="4" fill="none" d="M393.62,629.32C402.43,615.47 394.88,604.14 394.88,604.14" id="imagebot_12"/>
  </g>
  <title/>
 </g>
 <metadata>image/svg+xmlOpenclipartCartoon cat2008-07-10T07:24:31https://openclipart.org/detail/17683/cartoon-cat-by-lemmlinglemmlinganimalbrowncartooncatcolourfunnyhow i did itmammal</metadata>
</svg>