<?xml version="1.0" encoding="utf-8"?>
<!-- Generator: Adobe Illustrator 24.1.1, SVG Export Plug-In . SVG Version: 6.00 Build 0)  -->
<svg version="1.1" id="Calque_1" xmlns="http://www.w3.org/2000/svg" xmlns:xlink="http://www.w3.org/1999/xlink" x="0px" y="0px"
	 viewBox="0 0 3925.6 885.9" style="enable-background:new 0 0 3925.6 885.9;" xml:space="preserve">
<style type="text/css">
	.st0{fill:url(#SVGID_1_);}
	.st1{fill:#3C3C3B;}
	.st2{opacity:0;}
	.st3{fill:#FFFFFF;}
	.st4{fill:#FF5F00;}
	.st5{fill:#EB001B;}
	.st6{fill:#F79E1B;}
	.st7{fill:url(#SVGID_2_);}
	.st8{fill:#FBFBFB;}
	.st9{clip-path:url(#SVGID_4_);}
	.st10{fill:url(#path10283_1_);}
	.st11{fill:#C0D349;}
	.st12{fill:#FEFEFC;}
	.st13{fill:url(#SVGID_5_);}
	.st14{fill:#E31F36;}
</style>
<g>
	<circle class="st11" cx="438.9" cy="443" r="425.2"/>
	<path class="st12" d="M747.4,446.4L747.4,446.4c-15.5-18.5-43.2-21-61.7-5.4L481.2,612.4V182.8c0-24.2-19.6-43.8-43.8-43.8h0
		c-24.2,0-43.8,19.6-43.8,43.8v429.6L189.2,441c-18.5-15.5-46.2-13.1-61.7,5.4l0,0c-15.5,18.5-13.1,46.2,5.4,61.7l276.4,231.7
		c0.1,0.1,0.2,0.1,0.2,0.2c0.4,0.4,0.9,0.7,1.3,1.1c0.1,0.1,0.3,0.2,0.4,0.3c0.5,0.3,0.9,0.7,1.4,1c0.1,0.1,0.3,0.2,0.4,0.3
		c0.4,0.3,0.9,0.6,1.3,0.9c0.2,0.1,0.4,0.2,0.6,0.4c0.4,0.2,0.8,0.5,1.2,0.7c0.3,0.1,0.5,0.3,0.8,0.4c0.3,0.2,0.7,0.4,1,0.5
		c0.3,0.2,0.7,0.3,1,0.5c0.3,0.1,0.6,0.3,0.8,0.4c0.4,0.2,0.8,0.3,1.2,0.5c0.2,0.1,0.4,0.2,0.7,0.3c0.5,0.2,0.9,0.3,1.4,0.5
		c0.2,0.1,0.3,0.1,0.5,0.2c0.5,0.2,1,0.3,1.5,0.5c0.1,0,0.3,0.1,0.4,0.1c0.5,0.2,1.1,0.3,1.6,0.4c0.1,0,0.3,0.1,0.4,0.1
		c0.5,0.1,1.1,0.2,1.7,0.3c0.1,0,0.3,0.1,0.4,0.1c0.5,0.1,1.1,0.2,1.6,0.3c0.2,0,0.4,0,0.5,0.1c0.5,0.1,1,0.1,1.5,0.2
		c0.2,0,0.5,0,0.7,0.1c0.4,0,0.9,0.1,1.3,0.1c0.3,0,0.6,0,0.9,0c0.4,0,0.7,0,1.1,0c0.4,0,0.7,0,1.1,0c0.3,0,0.6,0,0.9,0
		c0.4,0,0.9-0.1,1.3-0.1c0.2,0,0.5,0,0.7-0.1c0.5,0,1-0.1,1.5-0.2c0.2,0,0.4,0,0.5-0.1c0.5-0.1,1.1-0.2,1.6-0.3
		c0.1,0,0.3-0.1,0.4-0.1c0.6-0.1,1.1-0.2,1.7-0.3c0.1,0,0.3-0.1,0.4-0.1c0.5-0.1,1.1-0.3,1.6-0.4c0.1,0,0.3-0.1,0.4-0.1
		c0.5-0.1,1-0.3,1.5-0.5c0.2-0.1,0.3-0.1,0.5-0.2c0.5-0.2,0.9-0.3,1.4-0.5c0.2-0.1,0.4-0.2,0.7-0.3c0.4-0.2,0.8-0.3,1.2-0.5
		c0.3-0.1,0.6-0.2,0.8-0.4c0.3-0.2,0.7-0.3,1-0.5c0.3-0.2,0.7-0.3,1-0.5c0.3-0.1,0.5-0.3,0.8-0.4c0.4-0.2,0.8-0.5,1.2-0.7
		c0.2-0.1,0.4-0.2,0.6-0.4c0.5-0.3,0.9-0.6,1.3-0.9c0.1-0.1,0.3-0.2,0.4-0.3c0.5-0.3,0.9-0.7,1.4-1c0.1-0.1,0.3-0.2,0.4-0.3
		c0.4-0.3,0.9-0.7,1.3-1.1c0.1-0.1,0.2-0.1,0.2-0.2L742,508.1C760.5,492.6,762.9,465,747.4,446.4z"/>
</g>
<g>
	<path class="st14" d="M988.6,643.3c-4.9-4.9-7.3-10.9-7.3-18.1V382.8c0-7.2,2.4-13.3,7.3-18.3c4.9-5.1,10.9-7.6,18.1-7.6
		c7.2,0,13.3,2.5,18.4,7.6c5.1,5.1,7.6,11.2,7.6,18.3v24.3c26.4-35.4,55.9-53.1,88.7-53.1h2.8c7.2,0,13.1,2.5,17.8,7.4
		c4.7,4.9,7.1,10.9,7.1,18.1c0,7.2-2.5,13-7.4,17.5c-4.9,4.5-11.1,6.8-18.6,6.8h-2.8c-18.1,0-34.6,4.4-49.7,13.2
		c-15.1,8.9-27.7,21-37.9,36.5v171.7c0,7.2-2.6,13.2-7.6,18.1c-5.1,4.9-11.2,7.3-18.4,7.3C999.5,650.6,993.5,648.2,988.6,643.3z"/>
	<path class="st14" d="M1210.4,614.2c-25.8-26.2-38.7-63-38.7-110.5c0-26.8,4.9-51.5,14.7-74c9.8-22.6,24.9-40.9,45.2-54.8
		c20.3-13.9,45.4-20.9,75.1-20.9c27.9,0,52,6.5,72.3,19.5c20.3,13,35.8,30.3,46.3,52c10.6,21.7,15.8,45.3,15.8,70.9
		c0,7.2-2.3,13.2-7.1,18.1c-4.7,4.9-11,7.4-18.9,7.4h-191.5c3,26.3,12.8,46.9,29.4,61.6c16.6,14.7,39.7,22,69.5,22
		c15.8,0,29.7-1.5,41.5-4.5c11.9-3,23.5-7.4,34.7-13c3-1.5,6.4-2.3,10.2-2.3c6,0,11.3,2.1,15.8,6.2c4.5,4.2,6.8,9.4,6.8,15.9
		c0,8.3-4.9,15.2-14.7,20.9c-14.7,8.3-29.2,14.5-43.5,18.7c-14.3,4.1-32.8,6.2-55.4,6.2C1272.1,653.4,1236.2,640.3,1210.4,614.2z
		 M1390.3,479.9c-1.1-18.4-5.9-33.9-14.4-46.3c-8.5-12.4-18.9-21.6-31.4-27.4c-12.4-5.8-25.1-8.8-37.9-8.8s-25.4,2.9-37.8,8.8
		c-12.4,5.8-22.8,15-31.1,27.4c-8.3,12.4-13,27.9-14.1,46.3H1390.3z"/>
	<path class="st14" d="M1516.3,643.3c-4.9-4.9-7.3-10.9-7.3-18.1V258.5c0-7.2,2.4-13.3,7.3-18.4c4.9-5.1,10.9-7.6,18.1-7.6
		c7.5,0,13.7,2.5,18.6,7.4c4.9,4.9,7.4,11.1,7.4,18.7v366.7c0,7.2-2.6,13.2-7.6,18.1c-5.1,4.9-11.2,7.3-18.4,7.3
		C1527.3,650.6,1521.2,648.2,1516.3,643.3z"/>
	<path class="st14" d="M1677.1,643.3c-14.1-6.8-25.3-16.7-33.6-29.7c-8.3-13-12.4-28-12.4-44.9c0-27.9,11-50.1,33.1-66.7
		c22-16.6,54.3-24.9,96.9-24.9h68.4v-4.5c0-24.9-6.1-42.8-18.4-53.7c-12.3-10.9-31.4-16.4-57.4-16.4c-14.3,0-27,1.1-38.1,3.4
		c-11.1,2.3-23.5,5.7-37,10.2c-3,0.7-5.5,1.1-7.4,1.1c-5.6,0-10.5-2-14.7-6.2c-4.1-4.1-6.2-9.2-6.2-15.2c0-10.2,4.9-17.3,14.7-21.5
		c32-13.6,64.6-20.4,97.8-20.4c26,0,47.9,5.3,65.8,15.8c17.9,10.6,31.1,24.2,39.5,41c8.5,16.8,12.7,34.9,12.7,54.5v159.9
		c0,7.2-2.6,13.2-7.6,18.1c-5.1,4.9-11.2,7.3-18.3,7.3c-7.2,0-13.2-2.4-18.1-7.3c-4.9-4.9-7.3-10.9-7.3-18.1v-14.7
		c-27.9,28.6-63.3,42.9-106.2,42.9C1706.6,653.4,1691.2,650,1677.1,643.3z M1790.4,596.1c15.5-8.1,28.4-18.2,39-30.3v-47.5h-61.6
		c-56.9,0-85.3,14.9-85.3,44.6c0,13.6,4.6,24.5,13.8,32.8c9.2,8.3,24.6,12.4,46.1,12.4C1758.9,608.2,1774.9,604.2,1790.4,596.1z"/>
	<path class="st14" d="M1971.2,292.4c-5.7-5.7-8.5-12.4-8.5-20.4v-2.3c0-7.9,2.8-14.7,8.5-20.3c5.6-5.7,12.4-8.5,20.3-8.5h3.4
		c7.9,0,14.7,2.8,20.3,8.5c5.7,5.7,8.5,12.4,8.5,20.3v2.3c0,8-2.8,14.7-8.5,20.4c-5.6,5.7-12.4,8.5-20.3,8.5h-3.4
		C1983.6,300.8,1976.8,298,1971.2,292.4z M1974.6,643.3c-4.9-4.9-7.3-10.9-7.3-18.1V382.8c0-7.2,2.4-13.3,7.3-18.3
		c4.9-5.1,10.9-7.6,18.1-7.6c7.5,0,13.7,2.4,18.6,7.3c4.9,4.9,7.4,11.1,7.4,18.7v242.4c0,7.2-2.6,13.2-7.6,18.1
		c-5.1,4.9-11.2,7.3-18.4,7.3S1979.5,648.2,1974.6,643.3z"/>
	<path class="st14" d="M2098.3,628c-6.4-4.5-9.6-10.8-9.6-18.7c0-6,2.1-11.3,6.2-15.8c4.1-4.5,9.4-6.8,15.8-6.8
		c3.4,0,6.8,0.7,10.2,2.3c12,5.3,24.1,9.4,36.2,12.4c12,3,25.6,4.6,40.7,4.6c41.8,0,62.7-13.4,62.7-40.1c0-8.6-4.8-15.3-14.4-19.8
		c-9.6-4.5-25.3-9.6-47.2-15.3c-22.2-5.2-40.6-10.7-55.1-16.4c-14.5-5.7-26.9-14.2-37.3-25.7c-10.4-11.5-15.5-26.7-15.5-45.5
		c0-26.4,9.5-47.9,28.5-64.4c19-16.6,46.2-24.9,81.7-24.9c29,0,56.3,4.7,81.9,14.1c5.3,1.5,9.3,4.4,12.1,8.5c2.8,4.1,4.3,8.5,4.3,13
		c0,6.1-2.2,11.3-6.5,15.8c-4.3,4.6-9.7,6.8-16.1,6.8c-1.9,0-4.3-0.4-7.4-1.1c-21.8-6.8-43.3-10.2-64.4-10.2
		c-20.3,0-36.3,3.7-47.8,11c-11.5,7.4-17.2,16.8-17.2,28.5c0,11.3,5.3,19.6,15.8,24.9c10.6,5.3,26.9,10.3,49.2,15.3
		c22.2,5.7,40.3,11.2,54.2,16.6c13.9,5.5,25.9,14.1,35.9,25.7c10,11.7,15,27.3,15,46.9c0,24.1-9.5,44.1-28.5,59.9
		c-19,15.8-45.9,23.7-80.5,23.7C2163.5,653.4,2129.2,645,2098.3,628z"/>
	<path class="st14" d="M2584.3,635.4c-23-12-41.3-29.4-55.1-52c-13.8-22.6-20.6-49.2-20.6-79.6c0-30.5,6.9-57.1,20.6-79.7
		c13.7-22.6,32.1-39.9,55.1-52c23-12,48-18.1,75.1-18.1c20,0,37.2,2.6,51.7,7.6c14.5,5.1,28,11.6,40.4,19.5
		c7.5,4.9,11.3,11.5,11.3,19.8c0,5.7-2.2,10.9-6.5,15.5c-4.3,4.7-9.3,7.1-15,7.1c-4.2,0-8.3-1.1-12.4-3.4
		c-12.4-6.4-23.1-11-31.9-13.8c-8.9-2.9-19.9-4.2-33.1-4.2c-32.4,0-57.8,9.3-76.3,28c-18.5,18.6-27.7,43.2-27.7,73.8
		c0,30.5,9.2,55.1,27.7,73.7c18.5,18.7,43.9,28,76.3,28c13.2,0,24.2-1.4,33.1-4.2c8.9-2.8,19.5-7.4,31.9-13.8
		c4.1-2.3,8.3-3.4,12.4-3.4c5.7,0,10.6,2.4,15,7.1c4.3,4.7,6.5,9.9,6.5,15.5c0,8.3-3.8,14.9-11.3,19.8
		c-12.4,7.9-25.9,14.4-40.4,19.5c-14.5,5.1-31.7,7.6-51.7,7.6C2632.3,653.4,2607.2,647.4,2584.3,635.4z"/>
	<path class="st14" d="M2875.8,634.8c-21.8-12.4-38.7-30-50.6-52.8c-11.9-22.8-17.8-48.8-17.8-78.2c0-29.4,5.9-55.5,17.8-78.3
		c11.9-22.8,28.7-40.4,50.6-52.8c21.8-12.5,47.3-18.7,76.3-18.7c28.6,0,53.9,6.2,75.7,18.7c21.8,12.4,38.8,30,50.9,52.8
		c12,22.8,18.1,48.9,18.1,78.3c0,29.4-6,55.5-18.1,78.2c-12,22.8-29,40.4-50.9,52.8c-21.8,12.5-47.1,18.7-75.7,18.7
		C2923.1,653.4,2897.7,647.2,2875.8,634.8z M2996.4,595.8c14.1-7.2,25.8-18.5,35-33.9c9.2-15.5,13.8-35,13.8-58.8
		c0-23.4-4.6-42.7-13.8-58.2c-9.2-15.5-20.9-26.7-35-33.7c-14.1-6.9-28.9-10.4-44.4-10.4c-15.8,0-30.8,3.5-44.9,10.4
		c-14.1,7-25.7,18.2-34.7,33.7c-9,15.5-13.6,34.8-13.6,58.2c0,23.7,4.5,43.3,13.6,58.8c9,15.5,20.6,26.8,34.7,33.9
		c14.1,7.1,29.1,10.7,44.9,10.7C2967.5,606.5,2982.3,603,2996.4,595.8z"/>
	<path class="st14" d="M3175.8,643.3c-4.9-4.9-7.3-10.9-7.3-18.1V258.5c0-7.2,2.4-13.3,7.3-18.4c4.9-5.1,10.9-7.6,18.1-7.6
		c7.5,0,13.7,2.5,18.6,7.4c4.9,4.9,7.4,11.1,7.4,18.7v366.7c0,7.2-2.6,13.2-7.6,18.1c-5.1,4.9-11.2,7.3-18.4,7.3
		S3180.7,648.2,3175.8,643.3z"/>
	<path class="st14" d="M3313.2,292.4c-5.7-5.7-8.5-12.4-8.5-20.4v-2.3c0-7.9,2.8-14.7,8.5-20.3c5.6-5.7,12.4-8.5,20.3-8.5h3.4
		c7.9,0,14.7,2.8,20.3,8.5c5.7,5.7,8.5,12.4,8.5,20.3v2.3c0,8-2.8,14.7-8.5,20.4c-5.6,5.7-12.4,8.5-20.3,8.5h-3.4
		C3325.6,300.8,3318.8,298,3313.2,292.4z M3316.5,643.3c-4.9-4.9-7.3-10.9-7.3-18.1V382.8c0-7.2,2.4-13.3,7.3-18.3
		c4.9-5.1,10.9-7.6,18.1-7.6c7.5,0,13.7,2.4,18.6,7.3c4.9,4.9,7.4,11.1,7.4,18.7v242.4c0,7.2-2.6,13.2-7.6,18.1
		c-5.1,4.9-11.2,7.3-18.4,7.3S3321.4,648.2,3316.5,643.3z"/>
	<path class="st14" d="M3440.3,628c-6.4-4.5-9.6-10.8-9.6-18.7c0-6,2.1-11.3,6.2-15.8c4.1-4.5,9.4-6.8,15.8-6.8
		c3.4,0,6.8,0.7,10.2,2.3c12,5.3,24.1,9.4,36.2,12.4c12,3,25.6,4.6,40.7,4.6c41.8,0,62.7-13.4,62.7-40.1c0-8.6-4.8-15.3-14.4-19.8
		c-9.6-4.5-25.3-9.6-47.2-15.3c-22.2-5.2-40.6-10.7-55.1-16.4c-14.5-5.7-26.9-14.2-37.3-25.7c-10.4-11.5-15.5-26.7-15.5-45.5
		c0-26.4,9.5-47.9,28.5-64.4c19-16.6,46.2-24.9,81.7-24.9c29,0,56.3,4.7,81.9,14.1c5.3,1.5,9.3,4.4,12.1,8.5c2.8,4.1,4.3,8.5,4.3,13
		c0,6.1-2.2,11.3-6.5,15.8c-4.3,4.6-9.7,6.8-16.1,6.8c-1.9,0-4.3-0.4-7.4-1.1c-21.8-6.8-43.3-10.2-64.4-10.2
		c-20.3,0-36.3,3.7-47.8,11c-11.5,7.4-17.2,16.8-17.2,28.5c0,11.3,5.3,19.6,15.8,24.9c10.6,5.3,26.9,10.3,49.2,15.3
		c22.2,5.7,40.3,11.2,54.2,16.6c13.9,5.5,25.9,14.1,35.9,25.7c10,11.7,15,27.3,15,46.9c0,24.1-9.5,44.1-28.5,59.9
		c-19,15.8-45.9,23.7-80.5,23.7C3505.4,653.4,3471.2,645,3440.3,628z"/>
</g>
</svg>
